<svg width="16" height="16" viewBox="0 0 16 16" fill="none" xmlns="http://www.w3.org/2000/svg"><g id="i_Attachment"><path id="Vector" d="M7.5 16C4.5 16 2 13.5 2 10.5V4C2 1.8 3.8 0 6 0C8.2 0 10 1.8 10 4V10C10 10 10 10.3 10 10.5C10 11.9 8.9 13 7.5 13C6.1 13 5 11.9 5 10.5C5 12.6 5 5 5 5C5 4.4 5.4 4 6 4C6.6 4 7 4.4 7 5V10.5C7 10.8 7.2 11 7.5 11C7.8 11 8 10.8 8 10.5V4C8 2.9 7.1 2 6 2C4.9 2 4 2.9 4 4V9.39999V10.5C4 10.5 3.6 14 7.5 14C9.4 14 11 12.4 11 10.5V1C11 0.4 11.4 0 12 0C12.6 0 13 0.4 13 1V10.5C13 13.5 10.5 16 7.5 16Z" fill="black"/></g></svg>