<svg width="16" height="16" viewBox="0 0 16 16" fill="none" xmlns="http://www.w3.org/2000/svg"><g id="i_Corners"><path id="Vector" d="M14 12.1V4C14.2 4 14.3 4.10001 14.5 4.10001C15.1 4.10001 15.6 3.90001 16 3.60001V12.6C15.6 12.3 15.1 12.1 14.5 12.1C14.3 12 14.2 12 14 12.1ZM14.5 3C13.7 3 13 2.3 13 1.5C13 0.7 13.7 0 14.5 0C15.3 0 16 0.7 16 1.5C16 2.3 15.3 3 14.5 3ZM12 2H4C4 1.8 4 1.7 4 1.5C4 0.9 3.8 0.4 3.5 0H12.5C12.2 0.4 12 0.9 12 1.5C12 1.7 12 1.8 12 2ZM1.5 16C0.7 16 0 15.3 0 14.5C0 13.7 0.7 13 1.5 13C2.3 13 3 13.7 3 14.5C3 15.3 2.3 16 1.5 16ZM1.5 3C0.7 3 0 2.3 0 1.5C0 0.7 0.7 0 1.5 0C2.3 0 3 0.7 3 1.5C3 2.3 2.3 3 1.5 3ZM2 3.89999V12C1.8 12 1.7 11.9 1.5 11.9C0.9 11.9 0.4 12.1 0 12.4V3.39999C0.4 3.69999 0.9 3.89999 1.5 3.89999C1.7 3.99999 1.8 3.99999 2 3.89999ZM4 14H12.1C12.1 14.2 12.1 14.3 12.1 14.5C12.1 15.1 12.3 15.6 12.6 16H3.59998C3.89998 15.6 4.09998 15.1 4.09998 14.5C3.99998 14.3 4 14.2 4 14ZM14.5 13C15.3 13 16 13.7 16 14.5C16 15.3 15.3 16 14.5 16C13.7 16 13 15.3 13 14.5C13 13.7 13.7 13 14.5 13Z" fill="black"/></g></svg>