<svg width="16" height="16" viewBox="0 0 16 16" fill="none" xmlns="http://www.w3.org/2000/svg"><g id="i_Controls 03"><path id="Vector" d="M15 13H12.8C12.4 14.2 11.3 15 10 15C8.7 15 7.60001 14.2 7.20001 13H1C0.4 13 0 12.6 0 12C0 11.4 0.4 11 1 11H7.20001C7.60001 9.8 8.7 9 10 9C11.3 9 12.4 9.8 12.8 11H15C15.6 11 16 11.4 16 12C16 12.6 15.6 13 15 13ZM11 11H9V13H11V11ZM15 5H8.79999C8.39999 6.2 7.3 7 6 7C4.7 7 3.60001 6.2 3.20001 5H1C0.4 5 0 4.6 0 4C0 3.4 0.4 3 1 3H3.20001C3.60001 1.8 4.7 1 6 1C7.3 1 8.39999 1.8 8.79999 3H15C15.6 3 16 3.4 16 4C16 4.6 15.6 5 15 5ZM7 3H5V5H7V3Z" fill="black"/></g></svg>