<svg width="16" height="16" viewBox="0 0 16 16" fill="none" xmlns="http://www.w3.org/2000/svg"><g id="i_Controls 01"><path id="Vector" d="M15 13H13V14C13 14.6 12.6 15 12 15C11.4 15 11 14.6 11 14V13H1C0.4 13 0 12.6 0 12C0 11.4 0.4 11 1 11H11V10C11 9.4 11.4 9 12 9C12.6 9 13 9.4 13 10V11H15C15.6 11 16 11.4 16 12C16 12.6 15.6 13 15 13ZM15 5H5V6C5 6.6 4.6 7 4 7C3.4 7 3 6.6 3 6V5H1C0.4 5 0 4.6 0 4C0 3.4 0.4 3 1 3H3V2C3 1.4 3.4 1 4 1C4.6 1 5 1.4 5 2V3H15C15.6 3 16 3.4 16 4C16 4.6 15.6 5 15 5Z" fill="black"/></g></svg>