<svg width="16" height="16" viewBox="0 0 16 16" fill="none" xmlns="http://www.w3.org/2000/svg"><g id="i_Globe"><path id="Vector" d="M8 16C3.6 16 0 12.4 0 8C0 3.6 3.6 0 8 0C12.4 0 16 3.6 16 8C16 12.4 12.4 16 8 16ZM9.70001 2.29999C10 2.59999 10 3 10 3C10.1 6.6 7.8 5.8 7 6C6.2 6.2 7 8 7 8V9C4.1 8.6 3.9 5.00001 4 3.60001C2.8 4.70001 2 6.3 2 8C2 11.3 4.7 14 8 14C8 13.2 8 11 8 11C6.9 10.7 7 9 7 9C7.6 8.4 10.5 8.7 11 10C11.8 12 10.9 12.4 10.6 12.7C10.3 13 10.1 13.3 10.1 13.6C12.4 12.8 14.1 10.6 14.1 8C14 5.3 12.2 2.99999 9.70001 2.29999Z" fill="black"/></g></svg>