<svg width="16" height="16" viewBox="0 0 16 16" fill="none" xmlns="http://www.w3.org/2000/svg"><g id="i_Group"><g id="Vector"><path d="M10.1 8H15.5C15.8 8 16 7.79999 16 7.39999V5.39999C16 5.29999 15.9 5.20001 15.9 5.20001C15.7 4.80001 15.4 4.49999 14.7 4.29999C14.2 5.19999 13.3 5.89999 12.1 5.89999C11.1 5.89999 10.2 5.40001 9.70001 4.70001C10 5.20001 10.1 5.79999 10.1 6.39999V8Z" fill="black"/><path d="M10.1 3C10.1 4.1 11 5 12.1 5C13.2 5 14.1 4.1 14.1 3V2C14.1 0.9 13.2 0 12.1 0C11 0 10.1 0.9 10.1 2V3Z" fill="black"/><path d="M12.1 12.2C12.1 12.1 12.1 12 12 11.9C11.8 11.4 11.1 10.9 10 10.6C9.2 12 7.8 13 6 13C4.2 13 2.8 12 2 10.6C1 10.9 0.300006 11.4 0.100006 11.9C6.10203e-06 12 0 12.1 0 12.2V15.2C0 15.7 0.400018 16 0.800018 16H11.3C11.8 16 12.1 15.6 12.1 15.2V12.2Z" fill="black"/><path d="M3.10001 9C3.10001 10.7 4.40001 12 6.10001 12C7.80001 12 9.10001 10.6 9.10001 9V7C9.10001 5.3 7.80001 4 6.10001 4C4.40001 4 3.10001 5.3 3.10001 7V9Z" fill="black"/></g></g></svg>