<svg width="16" height="16" viewBox="0 0 16 16" fill="none" xmlns="http://www.w3.org/2000/svg"><g id="i_Heart"><path id="Vector" d="M16 5.89999C16 5.99999 16 5.99999 16 5.89999C16 8.29999 14.5 10.3 12.8 11.8C12.8 11.8 12.8 11.8 12.7 11.9C10.5 13.9 8 15 8 15C8 15 5.49999 13.9 3.29999 11.9C3.29999 11.9 3.30001 11.9 3.20001 11.8C1.50001 10.3 0 8.29999 0 5.89999C0 4.79999 0.200006 3.90001 0.600006 3.20001C1.30001 1.70001 2.6 1 4 1C5.2 1 6.49999 1.6 7.39999 3C7.59999 3.3 7.8 3.70001 8 4.10001C8.2 3.70001 8.40001 3.3 8.60001 3C9.50001 1.7 10.8 1 12 1C13.4 1 14.7 1.79999 15.4 3.29999C15.8 3.99999 16 4.89999 16 5.89999Z" fill="black"/></g></svg>