<svg width="16" height="16" viewBox="0 0 16 16" fill="none" xmlns="http://www.w3.org/2000/svg"><g id="i_Location 01"><path id="Vector" d="M13.8 6.95652C13.8 7.15528 13.7 7.35404 13.7 7.5528C13.7 7.77695 13.5 7.9336 13.5 8.14908C12.2 12.0249 7.89999 16 7.89999 16C7.89999 16 3.79999 12.2236 2.39999 8.34782C2.39999 8.34784 2 6.59762 2 5.96273C2 2.68323 4.7 0 8 0C11.3 0 14 2.68323 14 5.96273C13.9 6.36025 13.9 6.65838 13.8 6.95652ZM7.89999 3.08075C6.19999 3.08075 4.89999 4.37268 4.89999 6.06212C4.89999 7.75156 6.19999 9.04348 7.89999 9.04348C9.59999 9.04348 10.9 7.75156 10.9 6.06212C10.9 4.37268 9.59999 3.08075 7.89999 3.08075Z" fill="black"/></g></svg>