<svg width="16" height="16" viewBox="0 0 16 16" fill="none" xmlns="http://www.w3.org/2000/svg"><g id="i_Notepad 03"><path id="Vector" d="M15 16H3C2.4 16 2 15.6 2 15H1C0.4 15 0 14.6 0 14C0 13.4 0.4 13 1 13H2V12H1C0.4 12 0 11.6 0 11C0 10.4 0.4 10 1 10H2V9H1C0.4 9 0 8.6 0 8C0 7.4 0.4 7 1 7H2V6H1C0.4 6 0 5.6 0 5C0 4.4 0.4 4 1 4H2V3H1C0.4 3 0 2.6 0 2C0 1.4 0.4 1 1 1H2C2 0.4 2.4 0 3 0H15C15.6 0 16 0.4 16 1V15C16 15.6 15.6 16 15 16ZM11 6C11 4.9 10.1 4 9 4C7.9 4 7 4.9 7 6V7C7 8.1 7.9 9 9 9C10.1 9 11 8.1 11 7V6ZM13 9.5C13 9.4 13 9.3 12.9 9.3C12.8 8.9 12.3 8.6 11.6 8.4C11.1 9.4 10.1 10 9 10C7.9 10 6.89999 9.3 6.39999 8.4C5.69999 8.6 5.30001 8.9 5.10001 9.3C5.10001 9.4 5 9.4 5 9.5V11.5C5 11.8 5.2 12 5.5 12H12.5C12.8 12 13 11.8 13 11.5V9.5Z" fill="black"/></g></svg>