<svg width="16" height="16" viewBox="0 0 16 16" fill="none" xmlns="http://www.w3.org/2000/svg"><g id="i_Search 03"><path id="Vector" d="M15 16H1C0.4 16 0 15.6 0 15V1C0 0.4 0.4 0 1 0H15C15.6 0 16 0.4 16 1V15C16 15.6 15.6 16 15 16ZM12.7 11.3L10.4 9C10.8 8.4 11 7.7 11 7C11 4.8 9.2 3 7 3C4.8 3 3 4.8 3 7C3 9.2 4.8 11 7 11C7.7 11 8.4 10.8 9 10.4L11.3 12.7C11.7 13.1 12.3 13.1 12.7 12.7C13.1 12.3 13.1 11.7 12.7 11.3ZM7 9C5.9 9 5 8.1 5 7C5 5.9 5.9 5 7 5C8.1 5 9 5.9 9 7C9 8.1 8.1 9 7 9Z" fill="black"/></g></svg>