<svg width="16" height="16" viewBox="0 0 16 16" fill="none" xmlns="http://www.w3.org/2000/svg"><g id="i_Search 01"><path id="Vector" d="M15.6 15.6C15.2 16 14.6 16 14.2 15.6L9.5 10.9C8.5 11.6 7.3 12 6 12C2.7 12 0 9.3 0 6C0 2.7 2.7 0 6 0C9.3 0 12 2.7 12 6C12 7.3 11.6 8.5 10.9 9.5L15.6 14.2C16 14.6 16 15.2 15.6 15.6ZM6.10001 2.10001C3.90001 2.10001 2.10001 3.90001 2.10001 6.10001C2.10001 8.30001 3.90001 10.1 6.10001 10.1C9.70001 10.1 10.1 6.60001 10.1 6.10001C10.1 3.90001 8.30001 2.10001 6.10001 2.10001Z" fill="black"/></g></svg>