<svg width="16" height="16" viewBox="0 0 16 16" fill="none" xmlns="http://www.w3.org/2000/svg"><g id="i_Settings 01"><path id="Union" fill-rule="evenodd" clip-rule="evenodd" d="M8 5C9.7 5 11 6.29999 11 8C11 9.70001 9.7 11 8 11C6.3 11 5 9.70001 5 8C5 6.29999 6.3 5 8 5ZM0 8C0 7.39999 0.400002 7 1 7H2.09998C2.29997 6.10001 2.59998 5.29999 3.09998 4.5L2.29999 3.70001C1.89999 3.29999 1.89999 2.70001 2.29999 2.29999C2.69999 1.89999 3.30001 1.89999 3.70001 2.29999L4.5 3.10001C5.2 2.60001 6.1 2.20001 7 2.10001V1C7 0.399994 7.4 0 8 0C8.6 0 9 0.399994 9 1V2.10001C9.9 2.29999 10.7 2.60001 11.5 3.10001L12.3 2.29999C12.7 1.89999 13.3 1.89999 13.7 2.29999C14.1 2.70001 14.1 3.29999 13.7 3.70001L12.9 4.5C13.4 5.20001 13.8 6.10001 13.9 7H15C15.6 7 16 7.39999 16 8C16 8.60001 15.6 9 15 9H13.9C13.7 9.89999 13.4 10.7 12.9 11.5L13.7 12.3C14.1 12.7 14.1 13.3 13.7 13.7C13.3 14.1 12.7 14.1 12.3 13.7L11.5 12.9C10.8 13.4 9.9 13.8 9 13.9V15C9 15.6 8.6 16 8 16C7.4 16 7 15.6 7 15V13.9C6.1 13.7 5.3 13.4 4.5 12.9L3.70001 13.7C3.30001 14.1 2.69999 14.1 2.29999 13.7C1.89999 13.3 1.89999 12.7 2.29999 12.3L3.09998 11.5C2.59998 10.8 2.19997 9.89999 2.09998 9H1C0.400002 9 0 8.60001 0 8Z" fill="black"/></g></svg>