<svg width="16" height="16" viewBox="0 0 16 16" fill="none" xmlns="http://www.w3.org/2000/svg"><g id="i_Star"><path id="Vector" d="M15.7 6L11.5 9.39999L13 14.3C13.1 14.5 13 14.8 12.8 14.9C12.7 15 12.6 15 12.5 15C12.4 15 12.3 15 12.2 14.9L8.09999 11.9L3.89998 14.9C3.69998 15 3.49998 15 3.29998 14.9C3.09998 14.8 2.99999 14.5 3.09999 14.3L4.39998 9.29999L0.299976 6C0.0999759 5.9 -5.77793e-06 5.59999 0.0999942 5.39999C0.199994 5.19999 0.399994 5 0.599994 5H5.89998L7.49999 0.399994C7.59999 0.199994 7.79999 0 7.99999 0C8.19999 0 8.39999 0.199994 8.49999 0.399994L10.2 5H15.4C15.6 5 15.8 5.19999 15.9 5.39999C15.9 5.59999 15.8 5.8 15.7 6Z" fill="black"/></g></svg>