<svg width="16" height="16" viewBox="0 0 16 16" fill="none" xmlns="http://www.w3.org/2000/svg"><g id="i_Tree"><path id="Vector" d="M15 16H13C12.4 16 12 15.6 12 15V13C12 12.4 12.4 12 13 12V10H9V12C9.6 12 10 12.4 10 13V15C10 15.6 9.6 16 9 16H7C6.4 16 6 15.6 6 15V13C6 12.4 6.4 12 7 12V10H3V12C3.6 12 4 12.4 4 13V15C4 15.6 3.6 16 3 16H1C0.4 16 0 15.6 0 15V13C0 12.4 0.4 12 1 12V10V9C1 8.4 1.4 8 2 8H7V6H6C5.4 6 5 5.6 5 5V1C5 0.4 5.4 0 6 0H10C10.6 0 11 0.4 11 1V5C11 5.6 10.6 6 10 6H9V8H14C14.6 8 15 8.4 15 9V10V12C15.6 12 16 12.4 16 13V15C16 15.6 15.6 16 15 16Z" fill="black"/></g></svg>